# xmcd
#
# Track frame offsets: 
#        150
#        15576
#        40954
#        57701
#        86301
#        99299
#        121171
#        146599
#        164361
#        194976
#        218871
#        241789
#        261126
#        300166
#
# Disc length: 4263 seconds
#
# Revision: 0
# Processed by: cddbd v1.5.2PL0 Copyright (c) Steve Scherf et al.
# Submitted via: ExactAudioCopy v1.3
#
DISCID=ba10a50e
DTITLE=Buddy Guy - As Good As It Gets
DYEAR=1998
DGENRE=Chicago Blues
TTITLE0=Poison Ivy
TTITLE1=One Room Country Shack
TTITLE2=The Things I Used To Do
TTITLE3=(You Give Me) Fever
TTITLE4=24 Hours Of The Day
TTITLE5=You Were Wrong
TTITLE6=Sweet Little Angel
TTITLE7=You Got A Hole In Your Soul
TTITLE8=Slow Blues (Instrumental)
TTITLE9=The Dream
TTITLE10=I'm Ready
TTITLE11=My Time After Awhile
TTITLE12=Come See About Me
TTITLE13=Stormy Monday Blues
EXTD=
EXTT0=
EXTT1=
EXTT2=
EXTT3=
EXTT4=
EXTT5=
EXTT6=
EXTT7=
EXTT8=
EXTT9=
EXTT10=
EXTT11=
EXTT12=
EXTT13=
PLAYORDER=
